<?xml version="1.0" encoding="utf-8"?>
<!-- Generator: Adobe Illustrator 19.1.0, SVG Export Plug-In . SVG Version: 6.00 Build 0)  -->
<!DOCTYPE svg PUBLIC "-//W3C//DTD SVG 1.1//EN" "http://www.w3.org/Graphics/SVG/1.1/DTD/svg11.dtd">
<svg version="1.1" xmlns="http://www.w3.org/2000/svg" xmlns:xlink="http://www.w3.org/1999/xlink" x="0px" y="0px"
	 viewBox="0 0 697 697" enable-background="new 0 0 697 697" xml:space="preserve">
<g id="Layer_1">
</g>
<g id="sky">
	<g>
		<rect y="254.4" fill="#B8DAE2" width="694.7" height="81.3"/>
		<rect y="252.2" fill="#B7DAE2" width="694.7" height="81.3"/>
		<rect y="250" fill="#B5D9E2" width="694.7" height="81.3"/>
		<rect y="247.8" fill="#B4D8E2" width="694.7" height="81.3"/>
		<rect y="245.6" fill="#B3D8E2" width="694.7" height="81.3"/>
		<rect y="243.4" fill="#B2D7E2" width="694.7" height="81.3"/>
		<rect y="241.2" fill="#B1D7E2" width="694.7" height="81.3"/>
		<rect y="239" fill="#B0D6E2" width="694.7" height="81.3"/>
		<rect y="236.7" fill="#AFD6E2" width="694.7" height="81.3"/>
		<rect y="234.5" fill="#AED5E2" width="694.7" height="81.3"/>
		<rect y="232.3" fill="#ADD5E2" width="694.7" height="81.3"/>
		<rect y="230.1" fill="#ACD4E2" width="694.7" height="81.3"/>
		<rect y="227.9" fill="#ABD3E1" width="694.7" height="81.3"/>
		<rect y="225.7" fill="#AAD3E1" width="694.7" height="81.3"/>
		<rect y="223.5" fill="#A9D2E1" width="694.7" height="81.3"/>
		<rect y="221.3" fill="#A8D2E1" width="694.7" height="81.3"/>
		<rect y="219" fill="#A7D1E1" width="694.7" height="81.3"/>
		<rect y="216.8" fill="#A6D1E1" width="694.7" height="81.3"/>
		<rect y="214.6" fill="#A5D0E1" width="694.7" height="81.3"/>
		<rect y="212.4" fill="#A4D0E1" width="694.7" height="81.3"/>
		<rect y="210.2" fill="#A3CFE1" width="694.7" height="81.3"/>
		<rect y="208" fill="#A2CFE1" width="694.7" height="81.3"/>
		<rect y="205.8" fill="#A1CEE1" width="694.7" height="81.3"/>
		<rect y="203.6" fill="#9FCEE1" width="694.7" height="81.3"/>
		<rect y="201.3" fill="#9ECDE1" width="694.7" height="81.3"/>
		<rect y="199.1" fill="#9DCDE1" width="694.7" height="81.3"/>
		<rect y="196.9" fill="#9CCCE1" width="694.7" height="81.3"/>
		<rect y="194.7" fill="#9BCCE1" width="694.7" height="81.3"/>
		<rect y="192.5" fill="#9ACBE0" width="694.7" height="81.3"/>
		<rect y="190.3" fill="#99CBE0" width="694.7" height="81.3"/>
		<rect y="188.1" fill="#98CAE0" width="694.7" height="81.3"/>
		<rect y="185.9" fill="#97CAE0" width="694.7" height="81.3"/>
		<rect y="183.6" fill="#96C9E0" width="694.7" height="81.3"/>
		<rect y="181.4" fill="#95C9E0" width="694.7" height="81.3"/>
		<rect y="179.2" fill="#94C8E0" width="694.7" height="81.3"/>
		<rect y="177" fill="#93C8E0" width="694.7" height="81.3"/>
		<rect y="174.8" fill="#92C7E0" width="694.7" height="81.3"/>
		<rect y="172.6" fill="#91C7E0" width="694.7" height="81.3"/>
		<rect y="170.4" fill="#90C6E0" width="694.7" height="81.3"/>
		<rect y="168.2" fill="#8FC6E0" width="694.7" height="81.3"/>
		<rect y="165.9" fill="#8DC5E0" width="694.7" height="81.3"/>
		<rect y="163.7" fill="#8CC5E0" width="694.7" height="81.3"/>
		<rect y="161.5" fill="#8BC4E0" width="694.7" height="81.3"/>
		<rect y="159.3" fill="#8AC3E0" width="694.7" height="81.3"/>
		<rect y="157.1" fill="#89C3E0" width="694.7" height="81.3"/>
		<rect y="154.9" fill="#88C2DF" width="694.7" height="81.3"/>
		<rect y="152.7" fill="#87C2DF" width="694.7" height="81.3"/>
		<rect y="150.5" fill="#86C2DF" width="694.7" height="81.3"/>
		<rect y="148.2" fill="#85C1DF" width="694.7" height="81.3"/>
		<rect y="146" fill="#84C1DF" width="694.7" height="81.3"/>
		<rect y="143.8" fill="#83C0DF" width="694.7" height="81.3"/>
		<rect y="141.6" fill="#82C0DF" width="694.7" height="81.3"/>
		<rect y="139.4" fill="#81BFDF" width="694.7" height="81.3"/>
		<rect y="137.2" fill="#7FBFDF" width="694.7" height="81.3"/>
		<rect y="135" fill="#7EBEDF" width="694.7" height="81.3"/>
		<rect y="132.8" fill="#7DBEDF" width="694.7" height="81.3"/>
		<rect y="130.5" fill="#7CBDDF" width="694.7" height="81.3"/>
		<rect y="128.3" fill="#7BBDDF" width="694.7" height="81.3"/>
		<rect y="126.1" fill="#7ABCDF" width="694.7" height="81.3"/>
		<rect y="123.9" fill="#79BCDF" width="694.7" height="81.3"/>
		<rect y="121.7" fill="#78BBDF" width="694.7" height="81.3"/>
		<rect y="119.5" fill="#77BBDF" width="694.7" height="81.3"/>
		<rect y="117.3" fill="#75BADE" width="694.7" height="81.3"/>
		<rect y="115.1" fill="#74BADE" width="694.7" height="81.3"/>
		<rect y="112.8" fill="#73BADE" width="694.7" height="81.3"/>
		<rect y="110.6" fill="#72B9DE" width="694.7" height="81.3"/>
		<rect y="108.4" fill="#71B9DE" width="694.7" height="81.3"/>
		<rect y="106.2" fill="#70B8DE" width="694.7" height="81.3"/>
		<rect y="104" fill="#6FB8DE" width="694.7" height="81.3"/>
		<rect y="101.8" fill="#6EB7DE" width="694.7" height="81.3"/>
		<rect y="99.6" fill="#6CB7DE" width="694.7" height="81.3"/>
		<rect y="97.4" fill="#6BB6DE" width="694.7" height="81.3"/>
		<rect y="95.1" fill="#6AB6DE" width="694.7" height="81.3"/>
		<rect y="92.9" fill="#69B6DE" width="694.7" height="81.3"/>
		<rect y="90.7" fill="#68B5DE" width="694.7" height="81.3"/>
		<rect y="88.5" fill="#66B5DE" width="694.7" height="81.3"/>
		<rect y="86.3" fill="#65B4DE" width="694.7" height="81.3"/>
		<rect y="84.1" fill="#64B4DE" width="694.7" height="81.3"/>
		<rect y="81.9" fill="#63B3DE" width="694.7" height="81.3"/>
		<rect y="79.7" fill="#62B3DE" width="694.7" height="81.3"/>
		<rect y="77.4" fill="#60B2DE" width="694.7" height="81.3"/>
		<rect y="75.2" fill="#5FB2DE" width="694.7" height="81.3"/>
		<rect y="73" fill="#5EB2DD" width="694.7" height="81.3"/>
		<rect y="70.8" fill="#5DB1DD" width="694.7" height="81.3"/>
		<rect y="68.6" fill="#5BB1DD" width="694.7" height="81.3"/>
		<rect y="66.4" fill="#5AB0DD" width="694.7" height="81.3"/>
		<rect y="64.2" fill="#59B0DD" width="694.7" height="81.3"/>
		<rect y="62" fill="#57B0DD" width="694.7" height="81.3"/>
		<rect y="59.7" fill="#56AFDD" width="694.7" height="81.3"/>
		<rect y="57.5" fill="#55AFDD" width="694.7" height="81.3"/>
		<rect y="55.3" fill="#53AEDD" width="694.7" height="81.3"/>
		<rect y="53.1" fill="#52AEDD" width="694.7" height="81.3"/>
		<rect y="50.9" fill="#50ADDD" width="694.7" height="81.3"/>
		<rect y="48.7" fill="#4FADDD" width="694.7" height="81.3"/>
		<rect y="46.5" fill="#4DADDD" width="694.7" height="81.3"/>
		<rect y="44.3" fill="#4CACDD" width="694.7" height="81.3"/>
		<rect y="42" fill="#4AACDD" width="694.7" height="81.3"/>
		<rect y="39.8" fill="#49ABDD" width="694.7" height="81.3"/>
		<rect y="37.6" fill="#47ABDD" width="694.7" height="81.3"/>
		<rect y="35.4" fill="#45ABDD" width="694.7" height="81.3"/>
		<rect y="33.2" fill="#44AADD" width="694.7" height="81.3"/>
		<rect y="31" fill="#42AADD" width="694.7" height="81.3"/>
		<rect y="28.8" fill="#40A9DD" width="694.7" height="81.3"/>
		<rect y="26.6" fill="#3FA9DD" width="694.7" height="81.3"/>
		<rect y="24.3" fill="#3DA9DD" width="694.7" height="81.3"/>
		<rect y="22.1" fill="#3BA8DD" width="694.7" height="81.3"/>
		<rect y="19.9" fill="#39A8DD" width="694.7" height="81.3"/>
		<rect y="17.7" fill="#37A7DD" width="694.7" height="81.3"/>
		<rect y="15.5" fill="#35A7DD" width="694.7" height="81.3"/>
		<rect y="13.3" fill="#32A7DD" width="694.7" height="81.3"/>
		<rect y="11.1" fill="#30A6DD" width="694.7" height="81.3"/>
		<rect y="8.9" fill="#2EA6DD" width="694.7" height="81.3"/>
		<rect y="6.6" fill="#2BA5DD" width="694.7" height="81.3"/>
		<rect y="4.4" fill="#28A5DD" width="694.7" height="81.3"/>
		<rect y="2.2" fill="#25A5DD" width="694.7" height="81.3"/>
		<rect fill="#22A4DE" width="694.7" height="81.3"/>
	</g>
	<linearGradient id="SVGID_1_" gradientUnits="userSpaceOnUse" x1="157.065" y1="362.5696" x2="157.065" y2="197.7325">
		<stop  offset="0" style="stop-color:#FFF33B"/>
		<stop  offset="0.1399" style="stop-color:#FFEB38"/>
		<stop  offset="0.3537" style="stop-color:#FFDB32"/>
		<stop  offset="0.6146" style="stop-color:#FFC229"/>
		<stop  offset="0.9103" style="stop-color:#F99F1F"/>
		<stop  offset="1" style="stop-color:#F7941E"/>
	</linearGradient>
	<circle fill="url(#SVGID_1_)" cx="157.1" cy="280.2" r="82.4"/>
</g>
<g id="clouds">
	<path fill="#EDEDED" d="M174,80c-0.7,0-1.3,0.1-2,0.1c0-0.4,0-0.8,0-1.3c0-17-13.8-30.7-30.7-30.7c-5.4,0-10.5,1.4-14.9,3.9
		c-6.4-14.2-20.6-24.1-37.2-24.1c-16.3,0-30.4,9.6-36.9,23.4c-4-1.9-8.5-3-13.3-3C22,48.3,8.3,62,8.3,78.9c0,16.5,13,29.9,29.4,30.6
		v0.2H174c8.2,0,14.8-6.6,14.8-14.8C188.8,86.6,182.1,80,174,80z"/>
	<path fill="#EDEDED" d="M619.2,75.3c0-10.6-8.6-19.2-19.2-19.2c-3.1,0-6,0.8-8.6,2.1c0.2-1.5,0.3-3,0.3-4.5
		c0-17.9-14.5-32.4-32.4-32.4c-5.9,0-11.3,1.6-16.1,4.3C536.5,10.5,521.5,0,504,0c-21.8,0-39.9,16.4-42.5,37.5
		c-6.4-7.8-16.1-12.7-26.9-12.7c-19.2,0-34.9,15.6-34.9,34.9c0,18.2,13.9,33.1,31.7,34.7v0.1h169.9v-0.1
		C611.3,93.7,619.2,85.5,619.2,75.3z"/>
	<path fill="#FFFFFF" d="M235.7,96.2c0.9,0,1.7,0.1,2.5,0.2c0-0.6,0-1.1,0-1.7c0-22.5,17.5-40.7,39.1-40.7c6.9,0,13.4,1.9,19,5.1
		c8.1-18.8,26.3-32,47.4-32c20.8,0,38.7,12.7,47,31c5.1-2.6,10.8-4,16.9-4c21.5,0,38.9,18.1,38.9,40.5c0,21.8-16.6,39.6-37.4,40.5
		v0.2H235.7c-10.4,0-18.8-8.8-18.8-19.6C216.9,105,225.3,96.2,235.7,96.2z"/>
</g>
<g id="land">
	<path fill="#96C478" d="M0,328.6c0,0,331.1-167.8,694.7-82.1c0,120.4,0,120.4,0,120.4v202.6L0,578.2V328.6z"/>
	<path fill="#787878" d="M432.8,349.7c0,0-26.9-74,7.1-126.8c-31.8,1.7-26.2,1.3-31.6,1.7c-5.4,0.4-54,63.8-47,114.7
		c34.7,29.3,35.4,27,35.4,27L432.8,349.7z"/>
	<path fill="#7BAF61" d="M694.7,460.8c0,0-207.3-189.9-694.7-112.3c0,306.8,0,306.8,0,306.8h694.7V460.8z"/>
	<path fill="#505251" d="M449.8,466c0,0,15.8-22.6,11.7-110c-32.7-8.8-80.6-15.3-80.6-15.3s-39,124.9-75.1,138.7
		C419.1,468.9,449.8,466,449.8,466z"/>
	<path fill="#71993F" d="M0,556.3c0,0,320.7-127.9,694.7-83.9c0,60.2,0,221.7,0,221.7L0,695.9V556.3z"/>
	<path fill="#353636" d="M208.8,694.7c-28.3-80.7,40.8-205.2,40.8-205.2s19.4-7.9,136.8-19.1c-47.8,111.5,60.5,224.3,60.5,224.3"/>
	<rect x="487.7" y="323.6" fill="none" width="86.3" height="24.3"/>
</g>
<g id="old_tree" display="none">
	<circle display="inline" fill="#617244" cx="468.6" cy="417.3" r="46.7"/>
	<circle display="inline" fill="#7FA95B" cx="410" cy="461.8" r="29.4"/>
	<circle display="inline" fill="#729351" cx="515.3" cy="473.2" r="38.7"/>
	<path display="inline" fill="#4F3C23" d="M479.8,390.4c0,0-57.2,101.1-35.9,174.3c27-1.1,27-1.1,27-1.1S451.2,506.3,479.8,390.4z"
		/>
	<path display="inline" fill="#4F3C23" d="M406.2,457.9c0,0,18.9,44.6,48.3,51.7c6.4-11.1,6.4-11.1,6.4-11.1
		S437.2,494.2,406.2,457.9z"/>
	<path display="inline" fill="#4F3C23" d="M515.3,459.8c0,0-24.4,57.8-62.6,67c-8.3-14.3-8.3-14.3-8.3-14.3S475.2,506.9,515.3,459.8
		z"/>
	<g display="inline">
		<circle fill="#5B7240" cx="254.8" cy="186.2" r="24"/>
		<circle fill="#7FA95B" cx="284.9" cy="210.2" r="15.1"/>
		<circle fill="#729351" cx="230.8" cy="214.9" r="19.9"/>
		<path fill="#4F3C23" d="M249,172.4c0,0,29.4,51.9,18.4,89.5c-13.9-0.6-13.9-0.6-13.9-0.6S263.8,231.9,249,172.4z"/>
		<path fill="#4F3C23" d="M286.8,207.1c0,0-9.7,22.9-24.8,26.6c-3.3-5.7-3.3-5.7-3.3-5.7S270.9,225.7,286.8,207.1z"/>
		<path fill="#4F3C23" d="M230.8,208.1c0,0,12.6,29.7,32.2,34.4c4.3-7.4,4.3-7.4,4.3-7.4S251.4,232.2,230.8,208.1z"/>
	</g>
	<ellipse display="inline" fill="#677C49" cx="552.1" cy="191.8" rx="22.2" ry="29.6"/>
	<path display="inline" fill="#4F3C23" d="M547.1,180.3c0,0,22.8,47.6,13.7,62.6c-13.7,0.2-17.2,0-17.2,0S554.2,211.6,547.1,180.3z"
		/>
	<ellipse display="inline" fill="#617244" cx="129.4" cy="451.9" rx="39.5" ry="81.2"/>
	<path display="inline" fill="#4F3C23" d="M124.9,416.9c0,0,32.5,124,19.5,163c-19.5,0.5-24.5,0-24.5,0S134.9,498.4,124.9,416.9z"/>
</g>
<g id="round_tree">
	<g>
		<g>
			<g>
				<path fill="#97B548" d="M621.3,552.1v96.7c26.7,0,48.3-21.6,48.3-48.3C669.6,573.8,648,552.1,621.3,552.1z"/>
				<path fill="#B8D24E" d="M572.9,600.5c0,26.7,21.7,48.3,48.4,48.3v-96.7C594.6,552.1,572.9,573.8,572.9,600.5z"/>
			</g>
			<g>
				<path fill="#7B4C48" d="M634.3,641.1c-4.1-1.3-8.5-2-13-2v33.2h13V641.1z"/>
				<path fill="#8B554E" d="M608.3,641.1v31.1h13v-33.2C616.7,639.1,612.4,639.8,608.3,641.1z"/>
			</g>
		</g>
	</g>
	<g>
		<g>
			<g>
				<path fill="#97B548" d="M308.2,231.7v29c8,0,14.5-6.5,14.5-14.5C322.7,238.2,316.2,231.7,308.2,231.7z"/>
				<path fill="#B8D24E" d="M293.7,246.2c0,8,6.5,14.5,14.5,14.5v-29C300.2,231.7,293.7,238.2,293.7,246.2z"/>
			</g>
			<g>
				<path fill="#7B4C48" d="M312.1,258.4c-1.2-0.4-2.5-0.6-3.9-0.6v9.9h3.9V258.4z"/>
				<path fill="#8B554E" d="M304.3,258.4v9.3h3.9v-9.9C306.8,257.7,305.5,258,304.3,258.4z"/>
			</g>
		</g>
	</g>
	<g>
		<g>
			<g>
				<path fill="#97B548" d="M676.3,270.7v31.6c8.7,0,15.8-7.1,15.8-15.8C692.1,277.8,685,270.7,676.3,270.7z"/>
				<path fill="#B8D24E" d="M660.5,286.5c0,8.7,7.1,15.8,15.8,15.8v-31.6C667.6,270.7,660.5,277.8,660.5,286.5z"/>
			</g>
			<g>
				<path fill="#7B4C48" d="M680.6,299.8c-1.3-0.4-2.8-0.7-4.3-0.7v10.8h4.3V299.8z"/>
				<path fill="#8B554E" d="M672.1,299.8v10.2h4.3v-10.8C674.8,299.1,673.4,299.3,672.1,299.8z"/>
			</g>
		</g>
	</g>
	<g>
		<g>
			<g>
				<path fill="#97B548" d="M35.8,472.5v40c11.1,0,20-9,20-20C55.8,481.5,46.8,472.5,35.8,472.5z"/>
				<path fill="#B8D24E" d="M15.7,492.6c0,11.1,9,20,20,20v-40C24.7,472.5,15.7,481.5,15.7,492.6z"/>
			</g>
			<g>
				<path fill="#7B4C48" d="M41.2,509.4c-1.7-0.5-3.5-0.8-5.4-0.8v13.7h5.4V509.4z"/>
				<path fill="#8B554E" d="M30.4,509.4v12.9h5.4v-13.7C33.9,508.5,32.1,508.8,30.4,509.4z"/>
			</g>
		</g>
	</g>
	<g>
		<g>
			<g>
				<path fill="#97B548" d="M311.6,332.3v50.1c13.8,0,25.1-11.2,25.1-25C336.6,343.5,325.4,332.3,311.6,332.3z"/>
				<path fill="#B8D24E" d="M286.5,357.4c0,13.8,11.2,25,25.1,25v-50.1C297.7,332.3,286.5,343.5,286.5,357.4z"/>
			</g>
			<g>
				<path fill="#7B4C48" d="M318.3,378.4c-2.1-0.7-4.4-1.1-6.7-1.1v17.2h6.7V378.4z"/>
				<path fill="#8B554E" d="M304.8,378.4v16.1h6.8v-17.2C309.2,377.4,307,377.7,304.8,378.4z"/>
			</g>
		</g>
	</g>
	<g>
		<g>
			<g>
				<path fill="#97B548" d="M487.7,222.6v25.2c7,0,12.6-5.6,12.6-12.6C500.3,228.3,494.7,222.6,487.7,222.6z"/>
				<path fill="#B8D24E" d="M475.1,235.2c0,7,5.6,12.6,12.6,12.6v-25.2C480.8,222.6,475.1,228.3,475.1,235.2z"/>
			</g>
			<g>
				<path fill="#7B4C48" d="M491.1,245.8c-1.1-0.3-2.2-0.5-3.4-0.5v8.6h3.4V245.8z"/>
				<path fill="#8B554E" d="M484.3,245.8v8.1h3.4v-8.6C486.5,245.3,485.4,245.5,484.3,245.8z"/>
			</g>
		</g>
	</g>
	<g>
		<g>
			<g>
				<path fill="#97B548" d="M624.7,222.6v25.2c7,0,12.6-5.6,12.6-12.6C637.3,228.3,631.7,222.6,624.7,222.6z"/>
				<path fill="#B8D24E" d="M612.1,235.2c0,7,5.6,12.6,12.6,12.6v-25.2C617.7,222.6,612.1,228.3,612.1,235.2z"/>
			</g>
			<g>
				<path fill="#7B4C48" d="M628.1,245.8c-1.1-0.3-2.2-0.5-3.4-0.5v8.6h3.4V245.8z"/>
				<path fill="#8B554E" d="M621.3,245.8v8.1h3.4v-8.6C623.5,245.3,622.4,245.5,621.3,245.8z"/>
			</g>
		</g>
	</g>
	<g>
		<g>
			<g>
				<path fill="#97B548" d="M189.2,465.3v64.2c17.7,0,32.1-14.4,32.1-32.1C221.2,479.7,206.9,465.3,189.2,465.3z"/>
				<path fill="#B8D24E" d="M157.1,497.4c0,17.7,14.4,32.1,32.1,32.1v-64.2C171.4,465.3,157.1,479.7,157.1,497.4z"/>
			</g>
			<g>
				<path fill="#7B4C48" d="M197.8,524.4c-2.7-0.9-5.6-1.4-8.6-1.4v22h8.6V524.4z"/>
				<path fill="#8B554E" d="M180.5,524.4V545h8.7v-22C186.1,523,183.2,523.5,180.5,524.4z"/>
			</g>
		</g>
	</g>
</g>
<g id="pine_tree">
	<g>
		<g>
			<g>
				<path fill="#7B4C48" d="M588.8,515.1c-4.7-1.5-9.6-2.3-14.8-2.3v33.7h14.8V515.1z"/>
				<path fill="#8B554E" d="M559.2,515.1v31.4H574v-33.7C568.8,512.7,563.8,513.6,559.2,515.1z"/>
			</g>
			<g>
				<path fill="#B8D24E" d="M531.3,519.2c13.4,2.2,27.8,3.4,42.7,3.4v-93.2L531.3,519.2z"/>
				<path fill="#97B548" d="M574,522.6c14.9,0,29.3-1.2,42.7-3.4L574,429.4V522.6z"/>
			</g>
		</g>
	</g>
	<g>
		<g>
			<g>
				<path fill="#7B4C48" d="M108.2,298.4c-2-0.7-4.2-1-6.5-1v14.7h6.5V298.4z"/>
				<path fill="#8B554E" d="M95.3,298.4v13.7h6.5v-14.7C99.5,297.3,97.3,297.7,95.3,298.4z"/>
			</g>
			<g>
				<path fill="#B8D24E" d="M83.1,300.1c5.9,1,12.1,1.5,18.7,1.5v-40.7L83.1,300.1z"/>
				<path fill="#97B548" d="M101.8,301.6c6.5,0,12.8-0.5,18.7-1.5l-18.7-39.2V301.6z"/>
			</g>
		</g>
	</g>
	<g>
		<g>
			<g>
				<path fill="#7B4C48" d="M201.6,255.7c-1.2-0.4-2.6-0.6-3.9-0.6v9h3.9V255.7z"/>
				<path fill="#8B554E" d="M193.7,255.7v8.4h3.9v-9C196.3,255.1,195,255.3,193.7,255.7z"/>
			</g>
			<g>
				<path fill="#B8D24E" d="M186.3,256.8c3.6,0.6,7.4,0.9,11.4,0.9v-24.8L186.3,256.8z"/>
				<path fill="#97B548" d="M197.7,257.7c4,0,7.8-0.3,11.4-0.9l-11.4-23.9V257.7z"/>
			</g>
		</g>
	</g>
	<g>
		<g>
			<g>
				<path fill="#7B4C48" d="M593.4,304.3c-1.6-0.5-3.3-0.8-5-0.8v11.4h5V304.3z"/>
				<path fill="#8B554E" d="M583.4,304.3v10.6h5v-11.4C586.7,303.5,585,303.8,583.4,304.3z"/>
			</g>
			<g>
				<path fill="#B8D24E" d="M574,305.7c4.5,0.8,9.4,1.2,14.4,1.2v-31.5L574,305.7z"/>
				<path fill="#97B548" d="M588.4,306.8c5.1,0,9.9-0.4,14.5-1.2l-14.5-30.3V306.8z"/>
			</g>
		</g>
	</g>
	<g>
		<g>
			<g>
				<path fill="#7B4C48" d="M189.2,346.4c-1.8-0.6-3.8-0.9-5.8-0.9v13.2h5.8V346.4z"/>
				<path fill="#8B554E" d="M177.6,346.4v12.3h5.8v-13.2C181.4,345.5,179.4,345.8,177.6,346.4z"/>
			</g>
			<g>
				<path fill="#B8D24E" d="M166.7,348c5.3,0.9,10.9,1.3,16.8,1.3v-36.5L166.7,348z"/>
				<path fill="#97B548" d="M183.4,349.4c5.9,0,11.5-0.5,16.8-1.3l-16.8-35.2V349.4z"/>
			</g>
		</g>
	</g>
	<g>
		<g>
			<g>
				<path fill="#7B4C48" d="M557.4,396.3c-2.7-0.9-5.5-1.3-8.4-1.3v19.3h8.4V396.3z"/>
				<path fill="#8B554E" d="M540.5,396.3v17.9h8.4V395C546,395,543.2,395.4,540.5,396.3z"/>
			</g>
			<g>
				<path fill="#B8D24E" d="M524.6,398.6c7.7,1.3,15.9,2,24.4,2v-53.2L524.6,398.6z"/>
				<path fill="#97B548" d="M549,400.6c8.5,0,16.7-0.7,24.4-2L549,347.4V400.6z"/>
			</g>
		</g>
	</g>
	<g>
		<g>
			<g>
				<path fill="#7B4C48" d="M98.6,609.1c-4.6-1.5-9.4-2.3-14.5-2.3v33h14.5V609.1z"/>
				<path fill="#8B554E" d="M69.6,609.1v30.7h14.5v-33C79,606.8,74.2,607.6,69.6,609.1z"/>
			</g>
			<g>
				<path fill="#B8D24E" d="M42.3,613.1c13.1,2.2,27.2,3.4,41.8,3.4v-91.1L42.3,613.1z"/>
				<path fill="#97B548" d="M84.1,616.5c14.6,0,28.6-1.2,41.8-3.4l-41.8-87.7V616.5z"/>
			</g>
		</g>
	</g>
</g>
<g id="Layer_9">
	<path fill="none" d="M50.4,308.9v-12.7c0-6.6-5.3-11.9-11.9-11.9c-6.6,0-11.9,5.3-11.9,11.9v12.7l11.9-6.8L50.4,308.9z"/>
	<polygon fill="none" points="8.7,290.8 0.3,296.9 0,296.5 0,324.1 8.7,319.1 	"/>
	<polygon fill="none" points="38.5,269.2 38.5,269.2 38.5,269.2 	"/>
	<path fill="#C03B2B" d="M38.5,269.2L8.7,290.8v28.3l17.9-10.2v-12.7c0-6.6,5.3-11.9,11.9-11.9c6.6,0,11.9,5.3,11.9,11.9v12.7
		l17.9,10.2v-28.3L38.5,269.2L38.5,269.2z"/>
	<path fill="#C03B2B" d="M0,337.8v29.9h2.7v35.8H0v17.8h14.6v-59.6h47.7v59.6H110v-64.5l-71.5-40.9L0,337.8z M74.2,367.6h17.9v35.8
		H74.2V367.6z M50.4,337.8c0,6.6-5.3,11.9-11.9,11.9c-6.6,0-11.9-5.3-11.9-11.9s5.3-11.9,11.9-11.9C45,325.9,50.4,331.3,50.4,337.8z
		"/>
	<rect y="367.6" fill="#BEE6FA" width="2.7" height="35.8"/>
	<path fill="#F0C419" d="M26.6,337.8c0,6.6,5.3,11.9,11.9,11.9c6.6,0,11.9-5.3,11.9-11.9s-5.3-11.9-11.9-11.9
		C31.9,325.9,26.6,331.3,26.6,337.8z"/>
	<rect x="74.2" y="367.6" fill="#BEE6FA" width="17.9" height="35.8"/>
	<polygon fill="#515151" points="38.5,302.1 26.6,308.9 26.6,315 38.5,308.1 50.4,315 50.4,308.9 	"/>
	<polygon fill="#515151" points="121.8,349.7 68.2,319.1 68.2,325.4 110,349.7 110,356.7 115.9,360.1 	"/>
	<polygon fill="#515151" points="0,324.1 0,330.5 8.7,325.4 8.7,319.1 	"/>
	<polygon fill="#515151" points="50.4,315 68.2,325.4 68.2,319.1 50.4,308.9 	"/>
	<polygon fill="#515151" points="8.7,319.1 8.7,325.4 26.6,315 26.6,308.9 	"/>
	<polygon fill="#515151" points="68.2,325.4 68.2,331.9 50.4,320 50.4,315 38.5,308.1 26.6,315 26.6,320 8.7,331.9 8.7,325.4 
		0,330.5 0,337.8 38.5,315.8 110,356.7 110,349.7 	"/>
	<polygon fill="#515151" points="8.7,331.9 26.6,320 26.6,315 8.7,325.4 	"/>
	<polygon fill="#515151" points="50.4,320 68.2,331.9 68.2,325.4 50.4,315 	"/>
	<polygon fill="#515151" points="0.3,296.9 8.7,290.8 8.7,290.2 38.5,269.2 38.5,269.2 38.5,269.2 38.5,269.2 68.2,290.2 
		68.2,290.8 76.7,296.9 83.7,287.2 38.5,254.4 0,282.4 0,296.5 	"/>
	<polygon fill="#515151" points="38.5,269.2 68.2,290.8 68.2,290.2 	"/>
	<polygon fill="#515151" points="38.5,269.2 8.7,290.2 8.7,290.8 38.5,269.2 	"/>
	<rect x="14.6" y="361.7" fill="#921B1D" width="47.7" height="59.6"/>
	<path fill="#FFFFFF" d="M695.7,167.9V86.2c-0.6,0-1.2-0.1-1.8-0.1c-16.3,0-30.4,9.6-36.9,23.4c-4-1.9-8.5-3-13.3-3
		c-16.9,0-30.6,13.7-30.6,30.6c0,16.5,13,29.9,29.4,30.6v0.2H695.7z"/>
</g>
<g id="roadlines">
	<g>
		<g>
			<path fill="#ECB955" d="M314.5,695c-0.2-0.2-1.9-0.7-7.2-8.9l8.7-5.7c4.6,7.1,12.1,14.2,12.1,14.2L314.5,695z"/>
		</g>
		<g>
			<g>
				<path fill="#ECB955" d="M294.3,660.2c-3.3-8.6-5.9-17.9-7.9-27.7l10.2-2.1c1.9,9.2,4.3,17.9,7.4,26L294.3,660.2z M282.7,604.1
					c-0.4-5.5-0.6-11.1-0.6-16.8c0-3.8,0.1-7.8,0.3-11.7l10.4,0.4c-0.2,3.8-0.2,7.5-0.2,11.2c0,5.5,0.2,10.9,0.5,16.1L282.7,604.1z
					 M295.3,548.7l-10.3-1.4c1.2-9.1,2.9-18.5,4.9-27.9l10.2,2.2C298.1,530.7,296.5,539.9,295.3,548.7z"/>
			</g>
		</g>
		<g>
			<g>
				<path fill="#ECB955" d="M306.7,494.7l-10-2.8c1.3-4.6,2-7,3.5-11.7l11.5-1.5C310.1,483.3,308,490.2,306.7,494.7z"/>
			</g>
		</g>
	</g>
	<g>
		<path fill="#EAB962" d="M381.2,468.6l-3.7-2.8c0-0.1,4.1-5.3,9.6-14.2l3.9,2.4C385.5,463.1,381.4,468.4,381.2,468.6z M399.8,438.7
			l-4.1-2.1c2.7-5.1,5.1-10.4,7.4-15.6l4.3,1.8C405,428.1,402.5,433.4,399.8,438.7z M413.6,406.4l-4.4-1.5c1.9-5.5,3.5-11,4.8-16.5
			l4.5,1.1C417.2,395.1,415.5,400.8,413.6,406.4z M421.9,372.3l-4.6-0.7c0.8-5.7,1.3-11.5,1.5-17l4.6,0.2
			C423.3,360.5,422.7,366.4,421.9,372.3z"/>
	</g>
	<g>
		<path fill="#EAB962" d="M396.2,343.1c-0.1-0.2-1.7-2.9-3.6-10.2l3.4-0.9c1.7,6.8,3.8,11.6,3.8,11.6L396.2,343.1z M390.5,321.2
			c-0.4-3.4-0.6-6.9-0.6-10.5c0-0.4,0-0.8,0-1.3l3.5,0c0,0.4,0,0.8,0,1.2c0,3.4,0.2,6.9,0.5,10.1L390.5,321.2z M394.2,298.2
			l-3.4-0.4c0.4-3.8,1.1-7.7,1.9-11.6l3.4,0.7C395.3,290.7,394.6,294.5,394.2,298.2z M398.9,275.8l-3.3-1c1.1-3.6,2.4-7.4,3.8-11.1
			l3.2,1.2C401.3,268.6,400,272.3,398.9,275.8z M407.1,254.4l-3.2-1.5c1.6-3.5,3.3-7,5.2-10.5l3.1,1.6
			C410.4,247.6,408.7,251.1,407.1,254.4z M417.9,234.2l-3-1.8c1.9-3.1,3.3-5.4,5.4-8.6l4.2-0.2C422.4,226.7,419.7,231.1,417.9,234.2
			z"/>
	</g>
</g>
<g id="points">
	<rect x="414" y="507.5" fill="none" width="177.2" height="29.7"/>
	<text transform="matrix(1 0 0 1 413.9897 516.2101)"><tspan x="0" y="0" fill="#F1F2F2" font-family="'GillSans-SemiBold'" font-size="12.7361px">Single Sign-On </tspan><tspan x="0" y="15.3" fill="#F1F2F2" font-family="'GillSans-SemiBold'" font-size="12.7361px">with Clever</tspan></text>
	<rect x="90.6" y="455.5" fill="none" width="238.1" height="47.3"/>
	<text transform="matrix(1 0 0 1 90.5693 464.1443)"><tspan x="0" y="0" fill="#F1F2F2" font-family="'GillSans-SemiBold'" font-size="12.7361px">Google Classroom </tspan><tspan x="0" y="15.3" fill="#F1F2F2" font-family="'GillSans-SemiBold'" font-size="12.7361px">Integration</tspan></text>
	<rect x="69.1" y="572.2" fill="none" width="249.5" height="29.7"/>
	<text transform="matrix(1 0 0 1 69.1179 580.8526)"><tspan x="0" y="0" fill="#F1F2F2" font-family="'GillSans-SemiBold'" font-size="12.7361px">Single Sign-On </tspan><tspan x="0" y="15.3" fill="#F1F2F2" font-family="'GillSans-SemiBold'" font-size="12.7361px">with SchoolCity </tspan></text>
	<g>
		<g>
			<circle fill="#FFFFFF" cx="205.5" cy="555.4" r="4.2"/>
			<g>
				<g>
					<line fill="none" stroke="#FFFFFF" stroke-miterlimit="10" x1="205.5" y1="555.4" x2="205.5" y2="553.9"/>
					
						<line fill="none" stroke="#FFFFFF" stroke-miterlimit="10" stroke-dasharray="3.0541,3.0541" x1="205.5" y1="550.9" x2="205.5" y2="485.2"/>
					<line fill="none" stroke="#FFFFFF" stroke-miterlimit="10" x1="205.5" y1="483.7" x2="205.5" y2="482.2"/>
				</g>
			</g>
		</g>
		<g>
			<g>
				<line fill="none" stroke="#FFFFFF" stroke-miterlimit="10" x1="202.8" y1="482.6" x2="201.3" y2="482.6"/>
				
					<line fill="none" stroke="#FFFFFF" stroke-miterlimit="10" stroke-dasharray="2.9845,2.9845" x1="198.4" y1="482.6" x2="92.4" y2="482.6"/>
				<line fill="none" stroke="#FFFFFF" stroke-miterlimit="10" x1="90.9" y1="482.6" x2="89.4" y2="482.6"/>
			</g>
		</g>
	</g>
	<g>
		<g>
			<ellipse fill="#FFFFFF" cx="293.2" cy="472.9" rx="4.2" ry="3.5"/>
			<g>
				<g>
					<line fill="none" stroke="#FFFFFF" stroke-miterlimit="10" x1="293.2" y1="472.9" x2="293.2" y2="471.4"/>
					
						<line fill="none" stroke="#FFFFFF" stroke-miterlimit="10" stroke-dasharray="3.0934,3.0934" x1="293.2" y1="468.3" x2="293.2" y2="414.2"/>
					<line fill="none" stroke="#FFFFFF" stroke-miterlimit="10" x1="293.2" y1="412.6" x2="293.2" y2="411.1"/>
				</g>
			</g>
		</g>
		<g>
			<g>
				<line fill="none" stroke="#FFFFFF" stroke-miterlimit="10" x1="290.6" y1="411.4" x2="289.1" y2="411.4"/>
				
					<line fill="none" stroke="#FFFFFF" stroke-miterlimit="10" stroke-dasharray="2.9741,2.9741" x1="286.1" y1="411.4" x2="150.8" y2="411.4"/>
				<line fill="none" stroke="#FFFFFF" stroke-miterlimit="10" x1="149.3" y1="411.4" x2="147.8" y2="411.4"/>
			</g>
		</g>
	</g>
	<g>
		<g>
			<circle fill="#FFFFFF" cx="349.4" cy="384.3" r="4.2"/>
			<g>
				<g>
					<line fill="none" stroke="#FFFFFF" stroke-miterlimit="10" x1="349.4" y1="384.3" x2="349.4" y2="382.8"/>
					
						<line fill="none" stroke="#FFFFFF" stroke-miterlimit="10" stroke-dasharray="3.0541,3.0541" x1="349.4" y1="379.7" x2="349.4" y2="314.1"/>
					<line fill="none" stroke="#FFFFFF" stroke-miterlimit="10" x1="349.4" y1="312.5" x2="349.4" y2="311"/>
				</g>
			</g>
		</g>
		<g>
			<g>
				<line fill="none" stroke="#FFFFFF" stroke-miterlimit="10" x1="346.7" y1="311.4" x2="345.2" y2="311.4"/>
				
					<line fill="none" stroke="#FFFFFF" stroke-miterlimit="10" stroke-dasharray="2.9845,2.9845" x1="342.3" y1="311.4" x2="236.3" y2="311.4"/>
				<line fill="none" stroke="#FFFFFF" stroke-miterlimit="10" x1="234.8" y1="311.4" x2="233.3" y2="311.4"/>
			</g>
		</g>
	</g>
	<g>
		<circle fill="#FFFFFF" cx="376.5" cy="238.9" r="4.2"/>
		<g>
			<g>
				<line fill="none" stroke="#FFFFFF" stroke-miterlimit="10" x1="376.5" y1="238.9" x2="376.5" y2="237.4"/>
				
					<line fill="none" stroke="#FFFFFF" stroke-miterlimit="10" stroke-dasharray="3.0541,3.0541" x1="376.5" y1="234.4" x2="376.5" y2="168.7"/>
				<line fill="none" stroke="#FFFFFF" stroke-miterlimit="10" x1="376.5" y1="167.2" x2="376.5" y2="165.7"/>
			</g>
		</g>
	</g>
	<g>
		<g>
			<line fill="none" stroke="#FFFFFF" stroke-miterlimit="10" x1="373.9" y1="166.1" x2="372.4" y2="166.1"/>
			
				<line fill="none" stroke="#FFFFFF" stroke-miterlimit="10" stroke-dasharray="3.0111,3.0111" x1="369.4" y1="166.1" x2="274.5" y2="166.1"/>
			<line fill="none" stroke="#FFFFFF" stroke-miterlimit="10" x1="273" y1="166.1" x2="271.5" y2="166.1"/>
		</g>
	</g>
	<g>
		<g>
			<circle fill="#FFFFFF" cx="189.7" cy="673.4" r="4.2"/>
			<g>
				<g>
					<line fill="none" stroke="#FFFFFF" stroke-miterlimit="10" x1="189.7" y1="673.4" x2="189.7" y2="671.9"/>
					
						<line fill="none" stroke="#FFFFFF" stroke-miterlimit="10" stroke-dasharray="3.0541,3.0541" x1="189.7" y1="668.8" x2="189.7" y2="603.1"/>
					<line fill="none" stroke="#FFFFFF" stroke-miterlimit="10" x1="189.7" y1="601.6" x2="189.7" y2="600.1"/>
				</g>
			</g>
		</g>
		<g>
			<g>
				<line fill="none" stroke="#FFFFFF" stroke-miterlimit="10" x1="187.1" y1="600.5" x2="185.6" y2="600.5"/>
				
					<line fill="none" stroke="#FFFFFF" stroke-miterlimit="10" stroke-dasharray="2.9845,2.9845" x1="182.6" y1="600.5" x2="76.6" y2="600.5"/>
				<line fill="none" stroke="#FFFFFF" stroke-miterlimit="10" x1="75.1" y1="600.5" x2="73.6" y2="600.5"/>
			</g>
		</g>
	</g>
	<rect x="148.1" y="383.2" fill="none" width="177.2" height="28.6"/>
	<text transform="matrix(1 0 0 1 148.0518 391.9291)"><tspan x="0" y="0" fill="#F1F2F2" font-family="'GillSans-SemiBold'" font-size="12.7361px">Spanish Translated </tspan><tspan x="0" y="15.3" fill="#F1F2F2" font-family="'GillSans-SemiBold'" font-size="12.7361px">Common Core</tspan></text>
	<rect x="268.1" y="153" fill="none" width="177.2" height="29.7"/>
	<text transform="matrix(1 0 0 1 268.1488 161.7168)" fill="#F1F2F2" font-family="'GillSans-SemiBold'" font-size="12.7361px">teacher events</text>
	<rect x="451.9" y="250.8" fill="none" width="177.2" height="29.7"/>
	<text transform="matrix(1 0 0 1 451.9034 259.4979)" fill="#F1F2F2" font-family="'GillSans-SemiBold'" font-size="12.7361px">New Dashboards</text>
	<rect x="442" y="162" fill="none" width="177.2" height="29.7"/>
	<text transform="matrix(1 0 0 1 441.9932 170.6761)" fill="#F1F2F2" font-family="'GillSans-SemiBold'" font-size="12.7361px">Custom Reports</text>
	<g>
		<circle fill="#FFFFFF" cx="358.5" cy="290.5" r="4.2"/>
		<g>
			<g>
				<line fill="none" stroke="#FFFFFF" stroke-miterlimit="10" x1="358.5" y1="290.5" x2="358.5" y2="289"/>
				
					<line fill="none" stroke="#FFFFFF" stroke-miterlimit="10" stroke-dasharray="3.0541,3.0541" x1="358.5" y1="285.9" x2="358.5" y2="220.3"/>
				<line fill="none" stroke="#FFFFFF" stroke-miterlimit="10" x1="358.5" y1="218.7" x2="358.5" y2="217.2"/>
			</g>
		</g>
	</g>
	<g>
		<g>
			<line fill="none" stroke="#FFFFFF" stroke-miterlimit="10" x1="355.9" y1="217.6" x2="354.4" y2="217.6"/>
			
				<line fill="none" stroke="#FFFFFF" stroke-miterlimit="10" stroke-dasharray="3.0018,3.0018" x1="351.4" y1="217.6" x2="184.8" y2="217.6"/>
			<line fill="none" stroke="#FFFFFF" stroke-miterlimit="10" x1="183.2" y1="217.6" x2="181.8" y2="217.6"/>
		</g>
	</g>
	<rect x="233.3" y="284.7" fill="none" width="177.2" height="29.7"/>
	<text transform="matrix(1 0 0 1 233.3094 293.3916)"><tspan x="0" y="0" fill="#F1F2F2" font-family="'GillSans-SemiBold'" font-size="12.7361px">Integrated ELD </tspan><tspan x="0" y="15.3" fill="#F1F2F2" font-family="'GillSans-SemiBold'" font-size="12.7361px">Standards</tspan></text>
	<rect x="179.5" y="187.4" fill="none" width="177.2" height="29.7"/>
	<text transform="matrix(1 0 0 1 179.5271 196.1372)"><tspan x="0" y="0" fill="#F1F2F2" font-family="'GillSans-SemiBold'" font-size="12.7361px"> Secondary Standards </tspan><tspan x="0" y="15.3" fill="#F1F2F2" font-family="'GillSans-SemiBold'" font-size="12.7361px">(Mastery) Based Grading</tspan></text>
	<rect x="472.9" y="323.4" fill="none" width="182.5" height="29.7"/>
	<text transform="matrix(1 0 0 1 472.9247 332.0609)"><tspan x="0" y="0" fill="#F1F2F2" font-family="'GillSans-SemiBold'" font-size="12.7361px">Integrated Next Gen </tspan><tspan x="0" y="15.3" fill="#F1F2F2" font-family="'GillSans-SemiBold'" font-size="12.7361px">Science Standards (NGSS)</tspan></text>
	<rect x="449" y="592.3" fill="none" width="212" height="43.6"/>
	<text transform="matrix(1 0 0 1 448.9747 601.0338)" fill="#F1F2F2" font-family="'GillSans-SemiBold'" font-size="12.7361px"> Classroom Event Calendar</text>
	<g>
		<g>
			<circle fill="#FFFFFF" cx="413.6" cy="609.8" r="4.2"/>
			<g>
				<g>
					<line fill="none" stroke="#FFFFFF" stroke-miterlimit="10" x1="413.6" y1="609.8" x2="413.6" y2="608.3"/>
					
						<line fill="none" stroke="#FFFFFF" stroke-miterlimit="10" stroke-dasharray="3.0541,3.0541" x1="413.6" y1="605.2" x2="413.6" y2="539.6"/>
					<line fill="none" stroke="#FFFFFF" stroke-miterlimit="10" x1="413.6" y1="538" x2="413.6" y2="536.5"/>
				</g>
			</g>
		</g>
		<g>
			<g>
				<line fill="none" stroke="#FFFFFF" stroke-miterlimit="10" x1="413" y1="536.5" x2="414.5" y2="536.5"/>
				
					<line fill="none" stroke="#FFFFFF" stroke-miterlimit="10" stroke-dasharray="3.0634,3.0634" x1="417.6" y1="536.5" x2="514.1" y2="536.5"/>
				<line fill="none" stroke="#FFFFFF" stroke-miterlimit="10" x1="515.6" y1="536.5" x2="517.1" y2="536.5"/>
			</g>
		</g>
	</g>
	<g>
		<circle fill="#FFFFFF" cx="452.8" cy="679.8" r="4.2"/>
		<g>
			<g>
				<line fill="none" stroke="#FFFFFF" stroke-miterlimit="10" x1="452.8" y1="679.8" x2="452.8" y2="678.3"/>
				
					<line fill="none" stroke="#FFFFFF" stroke-miterlimit="10" stroke-dasharray="3.0541,3.0541" x1="452.8" y1="675.3" x2="452.8" y2="609.6"/>
				<line fill="none" stroke="#FFFFFF" stroke-miterlimit="10" x1="452.8" y1="608.1" x2="452.8" y2="606.6"/>
			</g>
		</g>
	</g>
	<g>
		<g>
			<line fill="none" stroke="#FFFFFF" stroke-miterlimit="10" x1="452.2" y1="606.6" x2="453.7" y2="606.6"/>
			
				<line fill="none" stroke="#FFFFFF" stroke-miterlimit="10" stroke-dasharray="2.9967,2.9967" x1="456.7" y1="606.6" x2="647" y2="606.6"/>
			<line fill="none" stroke="#FFFFFF" stroke-miterlimit="10" x1="648.5" y1="606.6" x2="650" y2="606.6"/>
		</g>
	</g>
	<g>
		<g>
			<circle fill="#FFFFFF" cx="450.1" cy="336.2" r="4.2"/>
			<g>
				<g>
					<line fill="none" stroke="#FFFFFF" stroke-miterlimit="10" x1="450.1" y1="336.2" x2="450.1" y2="334.7"/>
					
						<line fill="none" stroke="#FFFFFF" stroke-miterlimit="10" stroke-dasharray="3.0541,3.0541" x1="450.1" y1="331.6" x2="450.1" y2="266"/>
					<line fill="none" stroke="#FFFFFF" stroke-miterlimit="10" x1="450.1" y1="264.4" x2="450.1" y2="262.9"/>
				</g>
			</g>
		</g>
		<g>
			<g>
				<line fill="none" stroke="#FFFFFF" stroke-miterlimit="10" x1="452.7" y1="263.3" x2="454.2" y2="263.3"/>
				
					<line fill="none" stroke="#FFFFFF" stroke-miterlimit="10" stroke-dasharray="3.0495,3.0495" x1="457.3" y1="263.3" x2="571.6" y2="263.3"/>
				<line fill="none" stroke="#FFFFFF" stroke-miterlimit="10" x1="573.2" y1="263.3" x2="574.7" y2="263.3"/>
			</g>
		</g>
	</g>
	<g>
		<g>
			<circle fill="#FFFFFF" cx="444.1" cy="249.7" r="4.2"/>
			<g>
				<g>
					<line fill="none" stroke="#FFFFFF" stroke-miterlimit="10" x1="444.1" y1="249.7" x2="444.1" y2="248.2"/>
					
						<line fill="none" stroke="#FFFFFF" stroke-miterlimit="10" stroke-dasharray="3.0541,3.0541" x1="444.1" y1="245.1" x2="444.1" y2="179.5"/>
					<line fill="none" stroke="#FFFFFF" stroke-miterlimit="10" x1="444.1" y1="177.9" x2="444.1" y2="176.4"/>
				</g>
			</g>
		</g>
		<g>
			<g>
				<line fill="none" stroke="#FFFFFF" stroke-miterlimit="10" x1="446.7" y1="176.8" x2="448.2" y2="176.8"/>
				
					<line fill="none" stroke="#FFFFFF" stroke-miterlimit="10" stroke-dasharray="2.9576,2.9576" x1="451.2" y1="176.8" x2="550.2" y2="176.8"/>
				<line fill="none" stroke="#FFFFFF" stroke-miterlimit="10" x1="551.7" y1="176.8" x2="553.2" y2="176.8"/>
			</g>
		</g>
	</g>
	<rect x="216.2" y="282.3" fill="none" width="9.8" height="0"/>
	<g>
		<rect x="404.2" y="417.8" fill="none" width="177.2" height="27.9"/>
		<text transform="matrix(1 0 0 1 404.2247 426.5274)"><tspan x="0" y="0" fill="#F1F2F2" font-family="'GillSans-SemiBold'" font-size="12.7361px">Career Pathways</tspan><tspan x="0" y="15.3" fill="#F1F2F2" font-family="'GillSans-SemiBold'" font-size="12.7361px">for Students</tspan></text>
		<g>
			<ellipse fill="#FFFFFF" cx="405" cy="498.1" rx="4.2" ry="2.9"/>
			<g>
				<g>
					<line fill="none" stroke="#FFFFFF" stroke-miterlimit="10" x1="405" y1="498.1" x2="405" y2="496.6"/>
					
						<line fill="none" stroke="#FFFFFF" stroke-miterlimit="10" stroke-dasharray="3.1683,3.1683" x1="405" y1="493.4" x2="405" y2="450.7"/>
					<line fill="none" stroke="#FFFFFF" stroke-miterlimit="10" x1="405" y1="449.1" x2="405" y2="447.6"/>
				</g>
			</g>
		</g>
		<g>
			<g>
				<line fill="none" stroke="#FFFFFF" stroke-miterlimit="10" x1="405" y1="447.6" x2="406.5" y2="447.6"/>
				
					<line fill="none" stroke="#FFFFFF" stroke-miterlimit="10" stroke-dasharray="2.9777,2.9777" x1="409.4" y1="447.6" x2="521.1" y2="447.6"/>
				<line fill="none" stroke="#FFFFFF" stroke-miterlimit="10" x1="522.6" y1="447.6" x2="524.1" y2="447.6"/>
			</g>
		</g>
		<circle fill="#FFFFFF" cx="405" cy="498.1" r="4.2"/>
	</g>
	<g>
		<ellipse fill="#FFFFFF" cx="471" cy="402.9" rx="4.2" ry="2.9"/>
		<g>
			<g>
				<line fill="none" stroke="#FFFFFF" stroke-miterlimit="10" x1="471" y1="402.9" x2="471" y2="401.4"/>
				
					<line fill="none" stroke="#FFFFFF" stroke-miterlimit="10" stroke-dasharray="3.1683,3.1683" x1="471" y1="398.2" x2="471" y2="355.5"/>
				<line fill="none" stroke="#FFFFFF" stroke-miterlimit="10" x1="471" y1="353.9" x2="471" y2="352.4"/>
			</g>
		</g>
	</g>
	<g>
		<g>
			<line fill="none" stroke="#FFFFFF" stroke-miterlimit="10" x1="471" y1="352.4" x2="472.5" y2="352.4"/>
			
				<line fill="none" stroke="#FFFFFF" stroke-miterlimit="10" stroke-dasharray="2.9777,2.9777" x1="475.5" y1="352.4" x2="587.2" y2="352.4"/>
			<line fill="none" stroke="#FFFFFF" stroke-miterlimit="10" x1="588.7" y1="352.4" x2="590.2" y2="352.4"/>
		</g>
	</g>
	<circle fill="#FFFFFF" cx="471" cy="402.9" r="4.2"/>
	<circle fill="#FFFFFF" cx="293.2" cy="473.5" r="4.2"/>
</g>
</svg>
